<!DOCTYPE svg PUBLIC "-//W3C//DTD SVG 1.1//EN" "http://www.w3.org/Graphics/SVG/1.1/DTD/svg11.dtd">

<!-- Uploaded to: SVG Repo, www.svgrepo.com, Transformed by: SVG Repo Mixer Tools -->
<svg fill="#af3fa0" width="32px" height="32px" viewBox="-51.2 -51.2 614.40 614.40" xmlns="http://www.w3.org/2000/svg" stroke="#af3fa0" stroke-width="0.00512">

<g id="SVGRepo_bgCarrier" stroke-width="0" transform="translate(89.6,89.6), scale(0.65)">

<rect x="-51.2" y="-51.2" width="614.40" height="614.40" rx="98.304" fill="#ffffff" strokewidth="0"/>

</g>

<g id="SVGRepo_tracerCarrier" stroke-linecap="round" stroke-linejoin="round"/>

<g id="SVGRepo_iconCarrier">

<title>ionicons-v5-l</title>

<path d="M400,48H112a64.07,64.07,0,0,0-64,64V400a64.07,64.07,0,0,0,64,64H400a64.07,64.07,0,0,0,64-64V112A64.07,64.07,0,0,0,400,48ZM364.25,186.29l-134.4,160a16,16,0,0,1-12,5.71h-.27a16,16,0,0,1-11.89-5.3l-57.6-64a16,16,0,1,1,23.78-21.4l45.29,50.32L339.75,165.71a16,16,0,0,1,24.5,20.58Z"/>

</g>

</svg>